<svg width="130" height="130" viewBox="0 0 130 130" fill="none" xmlns="http://www.w3.org/2000/svg">
<path d="M110.962 19.0379C98.685 6.76127 82.3621 0 65 0C47.6379 0 31.315 6.76127 19.0379 19.0379C6.76127 31.315 0 47.6379 0 65C0 84.6503 8.75266 103.039 24.0137 115.452C24.8295 116.116 26.0287 115.992 26.6927 115.176C27.3564 114.36 27.2327 113.161 26.4169 112.497C12.0491 100.811 3.80859 83.4988 3.80859 65C3.80859 31.2589 31.2589 3.80859 65 3.80859C98.7411 3.80859 126.191 31.2589 126.191 65C126.191 98.7411 98.7411 126.191 65 126.191C53.7423 126.191 42.7393 123.109 33.1805 117.278C32.2824 116.731 31.1106 117.014 30.5629 117.912C30.0153 118.81 30.2991 119.982 31.197 120.53C41.3535 126.725 53.0423 130 65 130C82.3621 130 98.685 123.239 110.962 110.962C123.239 98.6855 130 82.3621 130 65C130 47.6379 123.239 31.315 110.962 19.0379V19.0379Z" fill="black"/>
<path d="M61.3804 59.843C57.4573 66.9744 60.3254 76.7132 67.628 80.3459C71.5476 82.3952 76.1516 82.5754 80.2378 80.8951C81.2107 80.4954 81.6751 79.3828 81.2755 78.4101C80.8758 77.4371 79.7635 76.9727 78.7902 77.3721C75.7197 78.6335 72.2943 78.487 69.3919 76.9702C63.924 74.2471 61.8181 66.9437 64.7558 61.6068C67.4597 56.1476 74.6589 53.7068 80.0161 56.6412C85.5607 59.3989 87.6285 66.8541 84.5466 72.2023C84.0415 73.125 84.3802 74.2821 85.3029 74.7871C86.2256 75.2926 87.3827 74.9532 87.8877 74.0307C92.0038 66.884 89.1841 56.9438 81.7802 53.2655C74.628 49.3447 64.9955 52.5508 61.3804 59.843V59.843Z" fill="black"/>
<path d="M18.1838 92.3302L30.8438 98.1291C30.8578 98.1444 30.8699 98.1604 30.8844 98.1754C39.9369 107.482 52.0526 112.607 64.9992 112.607C81.0565 112.607 95.8999 104.588 104.765 91.1457C111.206 88.9108 116.151 83.6065 117.875 76.9384C119.557 70.4333 118.222 63.733 114.213 58.5558C113.452 57.5732 112.617 56.6708 111.72 55.8527C110.266 48.4176 107 41.3496 102.253 35.3892C101.598 34.5665 100.4 34.4312 99.5775 35.086C98.7548 35.7413 98.619 36.9395 99.2743 37.7622C102.788 42.1735 105.417 47.2443 107.009 52.6177C104.144 51.1849 100.95 50.4171 97.629 50.4171C95.3657 50.6205 93.029 50.3074 91.3958 48.6022C89.8973 47.162 89.2531 45.0632 89.4202 42.9863C89.4202 35.395 83.2439 29.2187 75.6524 29.2187C73.0288 29.2187 70.462 29.9744 68.2668 31.3698C68.2279 30.7371 68.1733 30.13 68.1203 29.5541C67.9265 27.4521 67.7595 25.6364 68.4925 23.9997C68.8838 23.1265 69.0744 22.2355 69.0854 21.3944C78.0711 22.2409 86.675 25.889 93.553 31.8162C93.9128 32.1262 94.3551 32.2778 94.7954 32.2778C95.3304 32.2778 95.8623 32.0536 96.2388 31.6166C96.9254 30.8199 96.836 29.6176 96.0393 28.9311C87.9389 21.9509 77.6356 17.8793 66.9868 17.4372C66.9376 17.4118 66.8916 17.3824 66.8408 17.359L51.8639 10.499C49.0666 9.29395 46.2008 11.7015 45.3162 14.511C44.5067 17.0056 44.8452 19.3794 45.0509 21.7788C28.2057 29.5719 17.3918 46.3952 17.3918 64.9997C17.3918 68.0123 17.6795 71.0262 18.2417 73.9649C15.9017 79.1997 15.9265 81.1575 15.973 84.5804C15.9867 85.5946 16.0025 86.7442 15.9545 88.1829C15.891 90.0823 16.7454 91.6715 18.1838 92.3302V92.3302ZM29.6616 89.0637C29.6344 85.7479 29.6233 84.3755 31.9572 79.3332C33.5255 75.9451 35.1244 74.7738 36.9759 73.4175C38.9647 71.9603 41.2192 70.3089 43.2004 66.0285C45.177 61.7581 45.0034 58.926 44.85 56.4276C44.7063 54.0825 44.5819 52.0573 46.1546 48.6596C47.7232 45.2707 49.3223 44.0992 51.1738 42.7425C53.1629 41.2854 55.4173 39.6337 57.3986 35.3531C59.2099 31.4397 58.9144 28.0038 58.6767 25.2431C58.4337 22.4194 58.2634 20.43 59.8891 18.362L65.1897 20.7898C65.2854 20.967 65.3959 21.5962 65.017 22.4415C63.8755 24.9897 64.1055 27.4871 64.3279 29.9022C64.5742 32.5764 64.8068 35.102 63.4235 38.0928C61.8582 41.4768 60.2492 42.642 58.3858 43.9913C56.3807 45.4431 54.1082 47.0887 52.1252 51.3754C50.147 55.6516 50.3379 58.4936 50.5065 61.0012C50.6645 63.3506 50.8008 65.3795 49.2314 68.7728C47.6661 72.1563 46.0573 73.3215 44.1942 74.6707C42.1891 76.1226 39.9166 77.7679 37.9339 82.0541C35.5322 87.246 35.2808 89.3412 35.3054 92.5823C35.3161 93.9757 34.2141 95.1732 33.7337 95.2633L29.5984 93.3692C29.6824 91.5877 29.671 90.2121 29.6616 89.0637V89.0637ZM64.9992 108.799C54.3565 108.799 44.3252 105.03 36.3673 98.1177C38.0387 96.8741 39.1305 94.6879 39.1143 92.5539C39.1031 91.0911 39.1287 89.9536 39.5578 88.369C43.1945 93.2719 48.4725 96.7428 54.4934 98.0908C60.6765 99.4913 67.0899 98.7251 72.6987 95.7208C79.3744 92.1649 86.9967 90.8631 94.1611 92.0577C95.8374 92.3368 97.5363 92.4109 99.2418 92.2827C90.949 102.695 78.4349 108.799 64.9992 108.799V108.799ZM75.6526 33.0266C81.1441 33.0266 85.6119 37.4943 85.6119 42.9855C85.4115 46.0905 86.5147 49.1641 88.7286 51.3197C91.0589 53.6727 94.3782 54.5365 97.629 54.2249C102.976 54.2249 107.923 56.653 111.202 60.8869C114.484 65.1256 115.573 70.6286 114.188 75.9847C112.662 81.888 108.033 86.4809 102.107 87.9709C99.6475 88.5896 97.1852 88.7003 94.7873 88.3004C86.7999 86.9695 78.3194 88.4109 70.9082 92.3591C66.1487 94.8941 60.7603 95.5908 55.3257 94.3741C49.3802 93.0426 44.2841 89.2775 41.2346 83.9947C42.6738 80.6281 44.5463 79.0577 46.4283 77.7557C48.4334 76.3036 50.7059 74.6583 52.6886 70.3719C54.6668 66.0956 54.4759 63.2536 54.3073 60.746C54.1493 58.3966 54.013 56.3677 55.5824 52.9745C57.1477 49.5906 58.7567 48.4255 60.6199 47.0762C62.625 45.6244 64.8977 43.9786 66.8804 39.6919C67.4279 38.5084 67.7788 37.3686 67.9979 36.2766C68.4488 35.9813 68.8848 35.6626 69.2971 35.3201C71.0767 33.8411 73.3337 33.0266 75.6526 33.0266V33.0266ZM45.0417 26.018C44.8937 27.0458 44.6022 28.1066 44.0807 29.2337C42.8756 31.8385 41.6472 33.0781 40.6042 33.947C39.7963 34.6201 39.6868 35.8211 40.3602 36.629C41.0336 37.4369 42.2343 37.5461 43.0422 36.873C44.331 35.7992 46.0066 34.1425 47.5376 30.8326C49.3508 26.913 49.0331 23.4647 48.7779 20.6938C48.604 18.8043 48.4537 17.1724 48.9369 15.6921C49.299 14.5833 50.0607 14.0415 50.3405 13.9892L56.3664 16.7491C54.3837 19.776 54.6455 22.8221 54.8818 25.5698C55.1114 28.2384 55.3282 30.7587 53.9419 33.7537C52.3733 37.1426 50.7742 38.3142 48.9227 39.6708C46.9336 41.1279 44.6791 42.7796 42.6979 47.0602C40.7212 51.3307 40.8949 54.1627 41.0483 56.6612C41.192 59.0062 41.3164 61.0314 39.7437 64.4292C38.1753 67.8176 36.5762 68.9888 34.7247 70.3454C32.7359 71.8024 30.4815 73.4538 28.5005 77.7339C25.8076 83.5524 25.8236 85.5212 25.8528 89.0954C25.8591 89.865 25.8657 90.6915 25.8459 91.6512L19.8461 88.9032C19.6445 87.4638 19.8781 85.6062 19.7808 84.5289C19.7356 81.2076 19.7169 79.8329 22.0477 74.7939C23.6128 71.4103 25.2218 70.2454 27.0847 68.8964C29.0896 67.4446 31.3623 65.799 33.345 61.5128C35.3232 57.2365 35.1323 54.3946 34.9637 51.887C34.6044 49.4444 35.0985 45.6607 37.0254 42.6006C37.5566 41.6929 37.2516 40.5264 36.3439 39.995C35.4367 39.4636 34.27 39.7688 33.7386 40.6765C31.3404 44.3952 30.7443 49.5917 31.164 52.1424C31.3219 54.4918 31.4582 56.5208 29.8886 59.914C28.3235 63.2975 26.7145 64.4624 24.8516 65.8114C23.7413 66.6156 22.5489 67.4799 21.369 68.8182C21.2591 67.5494 21.2004 66.2748 21.2004 64.9997C21.2004 48.4836 30.4655 33.4927 45.0417 26.018V26.018Z" fill="black"/>
</svg>
