<svg fill="none" height="112" viewBox="0 0 130 112" width="130" xmlns="http://www.w3.org/2000/svg"><g fill="#000"><path d="m79.8991 98.6996h-70.35906c-3.15606 0-5.72407-2.5678-5.72407-5.7241v-82.7277c0-3.1563 2.56801-5.72406 5.72407-5.72406h80.44376c1.054 0 1.9081-.85414 1.9081-1.90811s-.8541-1.90811-1.9081-1.90811h-80.44376c-5.26044 0-9.54004 4.2796-9.54004 9.54028v82.7277c0 5.1325 4.07444 9.3295 9.15842 9.5305v3.647c0 3.157 2.56778 5.725 5.72408 5.725h9.5758c2.1704 0 4.1887-1.26 5.1419-3.209l3.0098-6.153h47.2889c1.0539 0 1.9081-.855 1.9081-1.909.0002-1.0533-.8539-1.9074-1.9079-1.9074zm-53.7266 8.2924c-.3179.65-.9905 1.069-1.7142 1.069h-9.5758c-1.0522 0-1.9081-.856-1.9081-1.908v-3.638h15.3875z"/><path d="m120.46.70752h-22.8442c-1.0539 0-1.9081.85414-1.9081 1.90811s.8542 1.90811 1.9081 1.90811h22.8442c3.156 0 5.724 2.56776 5.724 5.72406v82.7277c0 3.1563-2.568 5.724-5.724 5.724h-32.9288c-1.054 0-1.9082.8542-1.9082 1.9085 0 1.054.8542 1.908 1.9082 1.908h9.8587l3.0101 6.153c.953 1.949 2.971 3.209 5.142 3.209h9.575c3.157 0 5.724-2.568 5.724-5.724v-3.648c5.084-.201 9.159-4.3978 9.159-9.5303v-82.7279c0-5.26068-4.279-9.54028-9.54-9.54028zm-5.343 107.35348h-9.575c-.724 0-1.397-.42-1.715-1.069l-2.189-4.477h15.387v3.638c0 1.053-.855 1.908-1.908 1.908z"/><path d="m34.6866 50.6665h-3.4894c-1.054 0-1.9081.8541-1.9081 1.9081s.8541 1.9081 1.9081 1.9081h3.4894c1.054 0 1.9081-.8541 1.9081-1.9081-.0002-1.054-.8544-1.9081-1.9081-1.9081z"/><path d="m45.0108 50.6665h-3.4894c-1.054 0-1.9081.8541-1.9081 1.9081s.8541 1.9081 1.9081 1.9081h3.4894c1.054 0 1.9081-.8541 1.9081-1.9081s-.8541-1.9081-1.9081-1.9081z"/><path d="m55.3353 50.6665h-3.4897c-1.054 0-1.9081.8541-1.9081 1.9081s.8541 1.9081 1.9081 1.9081h3.4897c1.054 0 1.9081-.8541 1.9081-1.9081s-.8541-1.9081-1.9081-1.9081z"/><path d="m34.6866 58.4785h-3.4894c-1.054 0-1.9081.8542-1.9081 1.9081 0 1.054.8541 1.9081 1.9081 1.9081h3.4894c1.054 0 1.9081-.8541 1.9081-1.9081-.0002-1.0539-.8544-1.9081-1.9081-1.9081z"/><path d="m45.0108 58.4785h-3.4894c-1.054 0-1.9081.8542-1.9081 1.9081 0 1.054.8541 1.9081 1.9081 1.9081h3.4894c1.054 0 1.9081-.8541 1.9081-1.9081 0-1.0539-.8541-1.9081-1.9081-1.9081z"/><path d="m55.3353 58.4785h-3.4897c-1.054 0-1.9081.8542-1.9081 1.9081 0 1.054.8541 1.9081 1.9081 1.9081h3.4897c1.054 0 1.9081-.8541 1.9081-1.9081 0-1.0539-.8541-1.9081-1.9081-1.9081z"/><path d="m34.6866 66.2913h-3.4894c-1.054 0-1.9081.8541-1.9081 1.9081 0 1.0539.8541 1.9081 1.9081 1.9081h3.4894c1.054 0 1.9081-.8542 1.9081-1.9081-.0002-1.054-.8544-1.9081-1.9081-1.9081z"/><path d="m41.5214 70.1075h3.4894c1.054 0 1.9081-.8542 1.9081-1.9081 0-1.054-.8541-1.9081-1.9081-1.9081h-3.4894c-1.054 0-1.9081.8541-1.9081 1.9081.0002 1.0539.8544 1.9081 1.9081 1.9081z"/><path d="m55.3353 66.2913h-3.4897c-1.054 0-1.9081.8541-1.9081 1.9081 0 1.0539.8541 1.9081 1.9081 1.9081h3.4897c1.054 0 1.9081-.8542 1.9081-1.9081 0-1.054-.8541-1.9081-1.9081-1.9081z"/><path d="m83.7158 35.4224c-1.0539 0-1.9081.8541-1.9081 1.9081v3.4077c-4.5769.799-8.1948 4.4167-8.9939 8.9938h-3.4076c-1.054 0-1.9082.8542-1.9082 1.9081 0 1.054.8542 1.9081 1.9082 1.9081h3.4076c.7991 4.577 4.4167 8.1949 8.9939 8.9939v3.4077c0 1.054.8542 1.9081 1.9081 1.9081 1.054 0 1.9081-.8541 1.9081-1.9081v-3.4077c4.5769-.799 8.1949-4.4167 8.9939-8.9939h3.4077c1.054 0 1.9081-.8541 1.9081-1.9081 0-1.0539-.8541-1.9081-1.9081-1.9081h-3.4077c-.799-4.5769-4.4167-8.1948-8.9939-8.9938v-3.4077c0-1.054-.8541-1.9081-1.9081-1.9081zm7.2539 16.2175c0 3.9998-3.2541 7.2536-7.2536 7.2536-3.9996 0-7.2539-3.2541-7.2539-7.2536s3.2541-7.2536 7.2539-7.2536c3.9995 0 7.2536 3.2541 7.2536 7.2536z"/><path d="m57.8486 41.5181v-3.4851c0-2.5934-2.1097-4.7034-4.7031-4.7034h-19.7588c-2.5934 0-4.7031 2.11-4.7031 4.7034v3.4851c0 2.5934 2.1097 4.7031 4.7031 4.7031h19.7588c2.5931.0002 4.7031-2.1097 4.7031-4.7031zm-25.3493 0v-3.4851c0-.4896.3979-.8875.8872-.8875h19.7587c.4893 0 .8872.3982.8872.8875v3.4851c0 .4893-.3981.8871-.8872.8871h-19.7587c-.4893 0-.8872-.3978-.8872-.8871z"/><path d="m110.731 13.1699h-92.5831c-3.1563 0-5.7241 2.568-5.7241 5.7241v65.5021c0 3.1563 2.568 5.724 5.7241 5.724h21.302c1.054 0 1.9081-.8541 1.9081-1.9081 0-1.0539-.8541-1.9081-1.9081-1.9081h-21.302c-1.0522 0-1.9081-.8559-1.9081-1.9081v-65.5018c0-1.0522.8559-1.9081 1.9081-1.9081h92.5841c1.052 0 1.908.8559 1.908 1.9081v7.7589c-2.347.1216-4.221 2.0637-4.221 4.4403v8.2949c0 2.3768 1.874 4.3187 4.221 4.4403v15.6333c-2.347.1216-4.221 2.0635-4.221 4.4403v8.2946c0 2.3768 1.874 4.3187 4.221 4.4403v7.7589c0 1.0522-.856 1.9081-1.908 1.9081h-63.6502c-1.0539 0-1.9081.8542-1.9081 1.9081 0 1.054.8542 1.9081 1.9081 1.9081h63.6492c3.157 0 5.725-2.5677 5.725-5.724v-7.7589c2.346-.1216 4.22-2.0638 4.22-4.4403v-8.2946c0-2.3769-1.874-4.3187-4.22-4.4404v-15.6333c2.346-.1216 4.22-2.0635 4.22-4.4403v-8.2949c0-2.3768-1.874-4.3186-4.22-4.4403v-7.7589c0-3.1563-2.568-5.7243-5.725-5.7243zm6.129 50.7324v8.2946c0 .3509-.285.636-.636.636h-3.353c-.351 0-.636-.2851-.636-.636v-8.2946c0-.3509.285-.6361.636-.6361h3.353c.351 0 .636.2852.636.6361zm0-32.8091v8.2949c0 .3509-.285.636-.636.636h-3.353c-.351 0-.636-.2851-.636-.636v-8.2949c0-.3509.285-.636.636-.636h3.353c.351.0002.636.2853.636.636z"/></g></svg>