<svg fill="none" height="130" viewBox="0 0 130 130" width="130" xmlns="http://www.w3.org/2000/svg"><g fill="#000"><path d="m108.664 20.709h-6.345c-.948 0-1.547.6-1.547 1.2629h-.001v20.5204c0 .8523 1.011 1.2944 2.053 1.2944 1.01 0 2.052-.4418 2.052-1.2944v-7.3242h3.536c4.167 0 7.419-1.9891 7.419-7.1664v-.1892c0-5.1776-3.157-7.1035-7.167-7.1035zm3.062 7.6085c0 2.4624-1.262 3.6306-3.314 3.6306h-3.536v-7.64h3.536c2.052 0 3.314 1.1682 3.314 3.6306z"/><path d="m74.4113 28.7312c-5.9931-5.9932-13.9612-9.2937-22.4368-9.2937s-16.4437 3.3005-22.4369 9.2937c-.7233.7231-.7233 1.8956 0 2.619.7232.7231 1.8957.7231 2.6188 0 5.2937-5.2934 12.3317-8.2087 19.8178-8.2087 7.4862 0 14.5244 2.9153 19.8178 8.2087.3619.3616.8359.5424 1.3097.5424s.9478-.1808 1.3096-.5424c.7232-.7231.7232-1.8959 0-2.619z"/><path d="m66.7714 36.3714c-8.159-8.159-21.4344-8.159-29.5931 0-.7234.7232-.7234 1.896 0 2.6191.7231.7231 1.8959.7231 2.619 0 6.7148-6.7145 17.6403-6.7145 24.3551 0 .3616.3615.8354.5423 1.3094.5423.4738 0 .9478-.1808 1.3096-.5423.7232-.7231.7232-1.8959 0-2.6191z"/><path d="m59.2524 43.8906c-4.0127-4.0127-10.5419-4.0127-14.5546 0-.7234.7232-.7234 1.8957 0 2.6191.7231.7233 1.8959.7231 2.619 0 2.5688-2.5685 6.7481-2.5685 9.3169 0 .3615.3618.8356.5423 1.3093.5423.4738 0 .9479-.1808 1.3094-.5423.7234-.7234.7234-1.8957 0-2.6191z"/><path d="m91.1326 79.9596c-.8013-.441-1.592-.924-2.3496-1.4358l-12.2497-8.2753c-3.7177-2.5117-8.0544-3.8391-12.5409-3.8391h-22.4835c-5.9681 0-11.5834 2.32-15.812 6.5322-2.1734 2.1656-4.6495 3.977-7.3594 5.3841-1.6027.8323-2.5982 2.4703-2.5982 4.2748 0 2.6573 2.1617 4.8191 4.8191 4.8191h7.6654c1.0227 0 1.852-.8293 1.852-1.852s-.8293-1.852-1.852-1.852h-7.6654c-.615 0-1.1154-.5004-1.1154-1.1154 0-.4166.2303-.795.6012-.9874 3.0446-1.5808 5.8261-3.6156 8.2667-6.0473 3.5293-3.5161 8.2163-5.4524 13.1977-5.4524h5.0337v13.6025h-6.1526c-1.0228 0-1.852.8293-1.852 1.852s.8292 1.852 1.852 1.852h50.7805c1.5224 0 2.761-1.2386 2.761-2.761 0-1.9495-1.0725-3.7502-2.7986-4.699zm-40.8858 3.7563v-13.6025h13.7459c3.7448 0 7.3645 1.108 10.4675 3.2043l12.2496 8.2753c.8506.5746 1.738 1.1169 2.6384 1.612.2331.1282.4283.3044.5751.5109z"/><path d="m54.8352 90.2351h-5.7205c-1.0227 0-1.852.8293-1.852 1.852s.8293 1.852 1.852 1.852h5.7205c1.0227 0 1.8519-.8293 1.8519-1.852s-.8292-1.852-1.8519-1.852z"/><path d="m128.402 88.6806-.585-.971c-2.204-3.6585-5.872-6.2346-10.061-7.0679l-4.781-.9509v-24.2345h12.373c2.548 0 4.62-2.0726 4.62-4.6201v-36.0675c0-2.5476-2.072-4.62-4.62-4.62h-36.0673c-2.5477 0-4.6201 2.0726-4.6201 4.62v13.6817c0 1.0228.829 1.852 1.852 1.852s1.852-.8292 1.852-1.852v-13.6817c0-.5052.4111-.9163.9164-.9163h36.068c.505 0 .916.4111.916.9163v36.0678c0 .5053-.411.9163-.916.9163h-36.0683c-.5053 0-.9163-.411-.9163-.9163v-10.3464c0-1.0227-.829-1.852-1.852-1.852s-1.852.8293-1.852 1.852v10.3464c0 2.5477 2.0726 4.6201 4.62 4.6201h14.0316v22.3129l-2.458-.4888c-3.3925-.6746-6.6996-2.7218-8.8923-4.2034l-12.2494-8.275c-4.6604-3.1482-10.0963-4.8123-15.7203-4.8123h-22.4833c-7.4813 0-14.5204 2.908-19.8201 8.188-3.3536 3.3411-7.575 5.6199-12.20803 6.5903l-2.6589.5569c-3.95279.8277-6.82167 4.36-6.82167 8.3986v17.9362c0 2.139 1.26318 4.083 3.2185 4.952l7.3765 3.279c.4461 2.332 1.5699 4.56 3.3721 6.362 2.3951 2.395 5.5412 3.593 8.6876 3.593s6.2923-1.198 8.6876-3.593c1.5405-1.541 2.5825-3.392 3.1322-5.354h61.505c.5497 1.962 1.592 3.813 3.1324 5.354 2.3211 2.32 5.4061 3.599 8.6881 3.599 3.281 0 6.367-1.278 8.687-3.599 1.541-1.541 2.583-3.392 3.133-5.354h3.513c3.786 0 6.867-3.081 6.867-6.867v-9.6061c-.001-2.0246-.553-4.0112-1.598-5.7453zm-21.387-33.2243h2.256v23.4979l-2.256-.4486zm-78.292 58.1777c-1.6209 1.621-3.776 2.514-6.0686 2.514-2.2925 0-4.4476-.893-6.0685-2.514-2.6003-2.6-3.1787-6.467-1.738-9.632.0117-.025.0228-.051.0345-.076.0439-.094.0904-.187.1379-.28.0223-.043.0447-.087.068-.13.0429-.08.0876-.16.1333-.239.0315-.055.0637-.109.0965-.163.0424-.069.0853-.139.13-.208.0404-.062.082-.124.1242-.185.0416-.06.083-.121.1262-.181.0495-.068.101-.135.1528-.202.0404-.053.0797-.105.1214-.157.0609-.075.1246-.149.1881-.223.0363-.042.0711-.085.1082-.126.0944-.105.1917-.208.2917-.308.0086-.009.0165-.018.0252-.027.019-.019.0391-.037.0584-.055.0848-.084.1701-.166.2572-.245.0226-.02.0464-.04.0693-.06.0868-.077.1742-.153.2635-.226.0084-.007.0173-.013.0257-.02 3.139-2.5404 7.6664-2.5374 10.8016.01.0036.003.0074.006.0112.009.0957.078.1894.159.2826.242.0167.015.034.029.0505.044.1077.097.2133.197.3169.301.1117.112.2194.227.324.343.0459.052.0893.104.1338.156.0543.064.1089.127.1612.192.0586.073.1153.147.1711.221.0315.042.0627.083.0932.125.0678.094.1338.188.1975.284.011.016.0216.033.0323.049 2.1785 3.327 1.8078 7.846-1.1129 10.767zm85.145 0c-1.621 1.621-3.776 2.514-6.069 2.514-2.292 0-4.447-.893-6.068-2.514-2.9215-2.921-3.2922-7.441-1.113-10.768.01-.016.02-.032.031-.047.064-.096.13-.191.198-.285.03-.042.061-.083.093-.124.056-.074.113-.149.172-.222.052-.064.106-.127.16-.19.045-.053.088-.106.135-.158.105-.116.212-.231.324-.343 1.621-1.6207 3.776-2.5135 6.068-2.5135 2.293 0 4.448.8928 6.069 2.5135.112.112.219.227.324.343.046.052.089.105.134.157.054.063.109.127.161.191.059.073.115.147.172.222.031.041.062.083.092.124.068.094.135.188.198.284.011.016.022.033.032.049 2.178 3.327 1.808 7.846-1.113 10.767zm12.428-9.602c0 1.744-1.419 3.163-3.164 3.163h-3.049c-.072-2.686-1.02-5.249-2.726-7.3497-.012-.0142-.023-.0289-.035-.0432-.105-.1287-.215-.2549-.326-.3803-.028-.032-.055-.065-.084-.097-.118-.1298-.24-.257-.363-.3824-.021-.0213-.041-.0437-.062-.0647-1.596-1.5953-3.552-2.698-5.686-3.2312-.97-.2425-1.976-.3672-3.002-.3672-.82 0-1.629.08-2.416.2359-2.361.4682-4.531 1.6222-6.2716 3.3625-.0208.0208-.0399.0426-.0604.0637-.1244.1262-.2468.2536-.3649.3839-.0279.0307-.0538.0627-.0812.0937-.1123.1264-.223.2539-.3294.3839-.0106.0129-.0205.0264-.0312.0396-1.7075 2.1015-2.6566 4.6655-2.7295 7.3525h-60.5762c-.0728-2.69-1.024-5.258-2.7358-7.3606-.0079-.0099-.0155-.0198-.0234-.0297-.1117-.1366-.2277-.2704-.3458-.403-.0218-.0244-.0421-.0495-.0642-.0739-.1384-.1526-.2806-.3029-.4276-.4499-.5987-.5987-1.2446-1.1228-1.9254-1.5719-2.0429-1.3472-4.4024-2.0208-6.762-2.0208-3.1461 0-6.2925 1.1976-8.6876 3.5927-.1368.1369-.2691.2773-.3986.4195-.0384.0421-.0752.085-.113.1274-.0914.1034-.1813.2077-.2689.3134-.0388.0469-.0777.0941-.1158.1419-.0906.113-.179.2269-.2653.3429-.0269.036-.0546.071-.0807.108-.2321.317-.4474.645-.6465.981-.0056.009-.0109.019-.0165.028-.0972.165-.1904.333-.2795.502-.0026.005-.0051.01-.0079.015-.6457 1.229-1.0799 2.558-1.2789 3.936l-5.77205-2.565c-.61903-.276-1.01893-.891-1.01893-1.568v-17.9362c0-2.2955 1.63084-4.3032 3.87764-4.7739l2.65894-.5568c5.337-1.118 10.1998-3.7431 14.0628-7.5915 4.6007-4.5838 10.7112-7.1081 17.2058-7.1081h22.4834c4.8823 0 9.6011 1.4447 13.6469 4.1775l12.2494 8.275c2.458 1.6608 6.1942 3.9617 10.2429 4.7671l16.902 3.3612c3.17.6304 5.943 2.5792 7.611 5.3467l.585.971c.698 1.157 1.066 2.4829 1.066 3.8339z"/><path d="m26.6306 103.59c-1.0623-1.062-2.474-1.647-3.9759-1.647-1.5018 0-2.9138.585-3.9756 1.647-1.0619 1.062-1.6469 2.474-1.6469 3.975 0 1.502.585 2.914 1.6469 3.976 1.0618 1.062 2.4738 1.647 3.9759 1.647 1.5018 0 2.9138-.585 3.9756-1.647 2.1922-2.192 2.1922-5.759 0-7.951zm-2.6193 5.332c-.3623.362-.8442.562-1.3566.562-.5126 0-.9943-.2-1.3566-.562-.3623-.363-.5622-.844-.5622-1.357s.1996-.994.5622-1.357c.3623-.362.844-.562 1.3566-.562.5124 0 .9943.2 1.3566.562.748.749.748 1.966 0 2.714z"/><path d="m111.774 103.59c-1.061-1.062-2.473-1.647-3.975-1.647s-2.914.585-3.976 1.647c-2.192 2.192-2.192 5.759 0 7.951 1.062 1.062 2.474 1.647 3.976 1.647s2.913-.585 3.975-1.647 1.647-2.474 1.647-3.975c0-1.502-.585-2.914-1.647-3.976zm-2.619 5.332c-.362.363-.844.562-1.356.562-.513 0-.995-.199-1.357-.562-.748-.748-.748-1.965 0-2.713.362-.362.844-.562 1.357-.562.512 0 .994.199 1.356.562.363.362.562.844.562 1.357 0 .512-.199.994-.562 1.356z"/></g></svg>