<svg fill="none" height="110" viewBox="0 0 130 110" width="130" xmlns="http://www.w3.org/2000/svg"><path d="m129.616 94.5131c-.364-.4879-.937-.7756-1.546-.7756h-9.477c3.902-3.1688 6.401-8.002 6.401-13.4084v-23.2979c0-9.5225-7.748-17.2706-17.27-17.2706h-5.599c1.968-1.1673 3.803-2.5856 5.458-4.241 5.824-5.824 8.736-13.8775 7.987-22.0958-.084-.9283-.82-1.6633-1.748-1.7476-6.269-.5703-12.391.9532-17.5618 4.3174-1.2824-6.00445-4.5386-11.45253-9.3618-15.468411-.7151-.5960852-1.7545-.5960852-2.4706 0-4.8232 4.015881-8.0784 9.464951-9.3618 15.468411-5.1724-3.3642-11.2968-4.8887-17.5622-4.3174-.9273.0843-1.6633.8193-1.7476 1.7476-.7478 8.2173 2.1632 16.2708 7.9872 22.0948 1.6553 1.6554 3.4902 3.0747 5.457 4.242h-4.8024c-5.3817 0-10.2793 2.4717-13.4769 6.4598v-8.7221c0-1.0662-.8639-1.9301-1.9311-1.9301h-6.4964v-8.849c0-3.1153-2.5341-5.6504-5.6504-5.6504h-3.1342v-9.2329c0-3.10538-2.5261-5.63154-5.6315-5.63154h-7.4625c-3.1054 0-5.6325 2.52616-5.6325 5.63154v9.2329h-3.1322c-3.11728 0-5.65337 2.5351-5.65337 5.6514v9.3598c0 1.0662.86487 1.9301 1.93107 1.9301 1.06621 0 1.9301-.8639 1.9301-1.9301v-9.3598c0-.9869.8044-1.7893 1.7922-1.7893h24.9939c.9859 0 1.7882.8024 1.7882 1.7893v8.848h-6.6809c-1.0672 0-1.931.8639-1.931 1.9301v14.3159c-8.3234 4.004-13.6316 12.3849-13.6316 21.7021 0 8.4662 4.3918 15.9257 11.0171 20.2212h-15.5656c-.9829-.0059-1.7813-.8053-1.7813-1.7882v-48.146c0-1.0662-.86489-1.9311-1.9311-1.9311-1.0662 0-1.93008.8649-1.93008 1.9311v48.146c0 .6248.10315 1.2259.2916 1.7882h-4.55841c-.60898 0-1.183244.2877-1.547242.7756-.3649904.488-.4770663 1.1198-.3044893 1.704 1.1792713 3.9749 3.5586513 7.3879 6.8812513 9.8689 3.32257 2.48 7.27107 3.791 11.41687 3.791h73.9105c1.0662 0 1.9301-.864 1.9301-1.931 0-1.066-.8639-1.931-1.9301-1.931h-73.9095c-5.7913 0-11.06577-3.355-13.61376-8.4163h102.95926.02 17.491c-2.547 5.0613-7.821 8.4163-13.612 8.4163h-11.612c-1.0659 0-1.9308.865-1.9308 1.931 0 1.067.8649 1.931 1.9308 1.931h11.612c4.145 0 8.094-1.311 11.416-3.791 3.323-2.481 5.702-5.894 6.882-9.8689.172-.5842.06-1.216-.305-1.704zm-32.7815-74.1971c4.3075-3.3087 9.5455-5.0137 14.9835-4.8887.145 6.4905-2.346 12.7419-6.966 17.3618-3.937 3.9386-9.0619 6.3279-14.508 6.8575 4.1924-4.9561 6.5301-11.2463 6.5301-17.8508 0-.4949-.0138-.9879-.0396-1.4798zm-11.1709-15.72137c4.6903 4.48601 7.3494 10.66707 7.3494 17.20117 0 6.5351-2.6591 12.7161-7.3494 17.2011-4.6903-4.485-7.3494-10.666-7.3494-17.2011 0-6.5341 2.6591-12.71516 7.3494-17.20117zm-26.1553 10.83267c5.4451-.1289 10.6769 1.58 14.9844 4.8897-.0258.4909-.0397.9839-.0397 1.4798 0 6.6035 2.3378 12.8946 6.5312 17.8508-5.4461-.5297-10.5698-2.918-14.5104-6.8585-4.6199-4.6199-7.1093-10.8713-6.9655-17.3618zm-29.6604 5.6415h-11.0043v-9.2329c0-.9759.7945-1.7704 1.7714-1.7704h7.4625c.9769 0 1.7704.7945 1.7704 1.7704zm4.0337 18.3606h13.1783v5.2745h-13.1783zm-13.6316 34.0869c0-8.1895 4.8848-15.5181 12.4444-18.671.7191-.2996 1.1872-1.0028 1.1872-1.7814v-4.4989h13.1783v4.4989c0 .7786.4682 1.4818 1.1873 1.7814 7.5596 3.1529 12.4443 10.4815 12.4443 18.671 0 11.15-9.0702 20.2212-20.2202 20.2212-11.1511 0-20.2213-9.0712-20.2213-20.2212zm87.494 20.2212h-54.2075c4.4236-2.8683 7.8513-7.148 9.6405-12.1964h35.9178c5.4282 0 9.8442-4.4156 9.8442-9.8438v-2.3913c0-5.4282-4.416-9.8438-9.8442-9.8438h-33.2954c-1.0672 0-1.9311.8639-1.9311 1.9301s.8639 1.931 1.9311 1.931h33.2954c3.2992 0 5.9822 2.6839 5.9822 5.9827v2.3913c0 3.2988-2.683 5.9826-5.9822 5.9826h-34.9021c.236-1.3528.361-2.7433.361-4.1636 0-8.9631-4.9155-17.0593-12.6993-21.225 1.944-5.1723 6.9011-8.6685 12.5446-8.6685h18.8941.006 24.4239c7.394 0 13.409 6.0154 13.409 13.4084v23.2979c.001 7.3871-6.004 13.3975-13.388 13.4084z" fill="#000"/></svg>