<svg fill="none" height="81" viewBox="0 0 130 81" width="130" xmlns="http://www.w3.org/2000/svg"><path d="m129.161 70.2374c-.87-.5898-2.055-.3621-2.648.5053-.16.2338-3.996 5.7255-11.041 5.7255s-10.881-5.4917-11.037-5.7192c-.702-1.1118-2.467-1.1106-3.168.0016-.038.0571-3.9182 5.7179-11.0263 5.7179-5.9579 0-9.6202-3.9269-10.7031-5.2769v-29.5665h48.5544c1.054 0 1.908-.8542 1.908-1.9081 0-1.054-.854-1.9081-1.908-1.9081h-15.344v-13.9064c0-12.6161-10.142-22.977977-22.6084-23.098582-6.1331-.061699-11.9168 2.289972-16.2837 6.614742-2.1143 2.09396-3.7641 4.52584-4.9085 7.17134-3.527-8.03182-11.4588-13.696961-20.657-13.786082-.0757-.000761-.1513-.001016-.227-.001016-6.0493 0-11.7439 2.344308-16.057 6.615758-4.3677 4.32574-6.7734 10.08514-6.7734 16.21694v14.1735h-23.18006c-1.053959 0-1.908097.8541-1.908097 1.9081s.854138 1.9081 1.908097 1.9081h23.18006v7.5349c0 1.054.8541 1.9081 1.9081 1.9081s1.9081-.8541 1.9081-1.9081v-25.5246c0-5.1058 2.0038-9.9021 5.6428-13.5057 3.6377-3.60245 8.45-5.57072 13.5618-5.51004 10.382.10029 18.8287 8.75064 18.8287 19.28264v13.9064h-4.823v-14.1733c0-7.6933-6.2567-14.05976-13.947-14.19153-.0812-.00127-.1615-.00203-.2425-.00203-3.6826 0-7.172 1.44036-9.8487 4.07166-2.764 2.717-4.3492 6.4857-4.3492 10.3398v51.2106c-2.5436-1.2773-4.1739-3.0808-4.8232-3.8944v-14.3776c0-1.054-.8541-1.9081-1.9081-1.9081-1.0539 0-1.9081.8541-1.9081 1.9081v14.3969c-1.0867 1.3551-4.7485 5.2792-10.7041 5.2792-7.04512 0-10.88113-5.4917-11.03703-5.7192-.58804-.8744-1.77353-1.1065-2.647979-.5187-.8744507.5878-1.106774 1.7733-.518729 2.648.203124.3024 5.084208 7.4061 14.203438 7.4061 6.2347 0 10.4881-3.32 12.6202-5.5173 2.132 2.1973 6.3857 5.5173 12.6201 5.5173 6.2331 0 10.4817-3.3182 12.612-5.5163 2.1325 2.1976 6.3857 5.5163 12.6188 5.5163 6.2347 0 10.4881-3.32 12.6201-5.5173 2.1321 2.1973 6.3858 5.5173 12.6202 5.5173 6.2331 0 10.4813-3.3182 12.6123-5.5163 2.132 2.1976 6.385 5.5163 12.619 5.5163 9.119 0 14-7.1037 14.203-7.4061.588-.8722.356-2.0511-.513-2.6409zm-91.4727-15.3531h29.3942v5.3421h-29.3942zm29.3942-3.8162h-29.3942v-9.443h29.3942zm-26.1858-34.8328c1.9997-1.9658 4.6094-3.0223 7.3503-2.9755 5.6225.0964 10.1966 4.751 10.1966 10.3761v14.1735h-20.755v-13.9557c-.0003-2.8376 1.1692-5.6143 3.2081-7.6184zm13.0667 54.5137c-.701-1.1057-2.4575-1.1065-3.1636-.0045-.1595.2335-3.9869 5.7237-11.0305 5.7237-.7289 0-1.4213-.0614-2.081-.167v-12.2588h29.3942v12.2585c-.6599.1056-1.3528.1673-2.0823.1673-7.0449 0-10.8811-5.4917-11.0368-5.7192zm16.935 4.3144v-51.4278c0-5.1058 2.0038-9.9021 5.6428-13.5057 3.6377-3.60245 8.4505-5.57072 13.5616-5.51004 10.3822.10029 18.8292 8.75064 18.8292 19.28264v13.9064h-4.823v-4.2415c0-1.054-.854-1.9081-1.908-1.9081s-1.908.8541-1.908 1.9081v4.2415h-20.7557v-13.9557c0-2.8374 1.1695-5.6141 3.2084-7.6184 1.9997-1.9658 4.6045-3.0223 7.3503-2.9756 5.6224.0965 10.197 4.7511 10.197 10.3762v2.2998c0 1.054.854 1.9081 1.908 1.9081s1.908-.8541 1.908-1.9081v-2.2998c0-7.6934-6.257-14.05981-13.9473-14.19159-.0812-.00127-.1615-.00203-.2425-.00203-3.6826 0-7.1718 1.44042-9.8487 4.07162-2.7638 2.7171-4.3491 6.4858-4.3491 10.3398v47.314c-.6511.8168-2.2814 2.6196-4.823 3.8962z" fill="#000"/></svg>