<svg fill="none" height="130" viewBox="0 0 130 130" width="130" xmlns="http://www.w3.org/2000/svg" xmlns:xlink="http://www.w3.org/1999/xlink"><clipPath id="a"><path d="m0 0h130v130h-130z"/></clipPath><g clip-path="url(#a)" fill="#000"><path d="m82.6178 71.9225-12.2363-5.6496c-7.4371-3.4369-16.8404.2004-23.6329 8.2631l-10.679-5.8365c-2.3698-1.1023-5.7064.9155-7.2908 4.3334-.7689 1.5832-1.0472 3.36-.799 5.1025.0656.6637.2904 1.3018.6553 1.8601.365.5583.8593 1.0202 1.441 1.3465l9.8881 5.4167c-4.0923 12.3446-1.021 24.6923 7.6971 28.7083l12.2335 5.647c1.9177.882 4.0049 1.333 6.1155 1.324 3.5182-.081 6.9492-1.11 9.9314-2.979 5.6654-3.563 10.1331-8.742 12.8267-14.869 6.2644-13.544 3.5046-28.215-6.1506-32.6675zm-50.5267 5.9068c-.0508-.1187-.0863-.2433-.1056-.371-.1023-.93.0641-1.8699.4793-2.7083.3805-.9847 1.1104-1.7946 2.0503-2.275l9.7662 5.3435c-1.0478 1.5837-1.9749 3.2441-2.7733 4.9671-.0217.0514-.0407.1029-.065.1544zm13.1056 6.6707c5.3246-11.5294 15.8546-18.0457 23.484-14.5303l2.9981 1.3867c-1.7896.5229-3.5058 1.27-5.1079 2.2236-5.6653 3.5619-10.133 8.74-12.8267 14.866-2.9154 6.0247-3.9605 12.784-3.0008 19.408.316 1.837.8619 3.627 1.625 5.327l-2.9792-1.381c-7.6456-3.532-9.5171-15.7788-4.1925-27.3zm39.8857 18.417c-2.3506 5.378-6.2552 9.932-11.2125 13.075-1.7679 1.234-3.813 2.012-5.9537 2.265-2.1408.253-4.3109-.026-6.3178-.813-1.9005-1.019-3.5199-2.492-4.7147-4.287-1.1949-1.795-1.9281-3.858-2.1347-6.005-.8234-5.812.1104-11.7382 2.6813-17.016 2.3491-5.3797 6.2541-9.9336 11.2125-13.0758 2.3565-1.4871 5.0688-2.3148 7.8541-2.3969 1.5198-.0091 3.0234.3125 4.4065.9425 7.6321 3.5235 9.5035 15.7706 4.179 27.3112z"/><path d="m33.7461 96.1596c-1.578.8125-3.3144 1.2706-5.0879 1.3422-1.7734.0715-3.5411-.2451-5.1794-.9278-4.4092-2.0367-7.0932-7.2448-7.1771-13.9344-.0071-.534-.2243-1.0437-.6044-1.4188-.3802-.3751-.8928-.5854-1.4269-.5854h-.0271c-.2667.0036-.5301.0596-.7752.165-.2451.1053-.4671.2579-.6532.4491-.1861.1911-.3327.417-.4315.6649-.0988.2478-.1478.5126-.1442.7794.0071 3.3155.7005 6.5937 2.0367 9.6281l-3.0334-1.3975c-1.90048-1.0196-3.52011-2.4922-4.71535-4.2874s-1.92916-3.8576-2.13672-6.0043c-.8212-5.8129.11344-11.7385 2.68396-17.0164 2.35002-5.3792 6.25471-9.9328 11.21251-13.0759 1.7683-1.2313 3.8127-2.0081 5.9525-2.2618 2.1397-.2536 4.3091.0237 6.3162.8075.0406.0203.0821.0384.1246.0541l2.944 1.3542c-4.0236 1.4334-7.7033 3.6916-10.8033 6.6298-3.1001 2.9382-5.5521 6.4917-7.199 10.4327-1.1835 2.5474-2.0757 5.2203-2.6596 7.9679-.1115.5269-.0093 1.0765.2843 1.5279.2935.4515.7543.768 1.2811.8798.1399.029.2824.0435.4252.0434.4651-.0007.9159-.1611 1.2768-.4545.361-.2933.6101-.7018.7057-1.157.5223-2.4494 1.3182-4.8323 2.3725-7.104 5.3246-11.5266 15.8573-18.0591 23.484-14.5275 1.9837 1.0747 3.6616 2.636 4.8763 4.5371 1.2147 1.9012 1.9263 4.0799 2.0679 6.3315.038.2641.1277.5181.2639.7475.1363.2294.3163.4297.53.5895.2136.1599.4566.276.7152.3419.2585.0659.5275.0803.7916.0422.2641-.038.5181-.1277.7475-.264.2294-.1362.4297-.3162.5896-.5299.1598-.2136.276-.4567.3419-.7152s.0802-.5275.0421-.7916c-.2437-2.9208-1.2203-5.733-2.8394-8.1762-1.619-2.4433-3.8282-4.4387-6.4231-5.8015l-12.2308-5.6523c-.0441-.0213-.0893-.0402-.1354-.0569-2.5899-1.0386-5.3951-1.4261-8.1696-1.1286-2.7745.2974-5.4337 1.2708-7.7446 2.8349-5.6646 3.5627-10.13216 8.7406-12.82665 14.866-6.26438 13.5823-3.507296 28.2479 6.15062 32.7086l12.23623 5.6471c1.9113.873 3.9899 1.318 6.0911 1.305 2.6047-.03 5.1738-.609 7.54-1.698.492-.2201.8764-.6267 1.0687-1.1303.1922-.5036.1765-1.063-.0436-1.555-.2202-.492-.6268-.8764-1.1304-1.0687-.5036-.1922-1.0629-.1766-1.5549.0436z"/><path d="m95.4934 82.772c-.5387.0065-1.0528.2267-1.4291.6122-.3764.3855-.5842.9047-.5777 1.4434.0064.5387.2266 1.0528.6121 1.4292s.9048.5842 1.4435.5777h.0623c2.6474-.0662 5.2285-.8429 7.4725-2.2489s4.069-3.3895 5.284-5.7428 1.774-4.9899 1.621-7.6337c-.154-2.6438-1.016-5.1976-2.496-7.394-1.48-2.1965-3.523-3.9547-5.915-5.0906-2.3922-1.136-5.0459-1.6079-7.6831-1.3663-2.6373.2416-5.1611 1.1877-7.3072 2.7394-2.1462 1.5517-3.8356 3.6518-4.8916 6.0805-.2155.4938-.226 1.053-.0292 1.5545.1968.5016.5848.9044 1.0787 1.1199.4938.2155 1.053.226 1.5546.0292.5015-.1968.9043-.5848 1.1198-1.0786.7654-1.7608 1.99-3.2834 3.5457-4.4084 1.5557-1.1251 3.3853-1.8112 5.2971-1.9866 1.9119-.1754 3.8357.1665 5.5701.9897 1.7341.8233 3.2161 2.0976 4.2881 3.6897 1.073 1.5921 1.699 3.4434 1.811 5.36s-.294 3.8281-1.174 5.5343-2.203 3.1444-3.83 4.164c-1.6265 1.0196-3.4975 1.5832-5.4167 1.6316z"/><path d="m126.557 17.6285c-1.966-3.0932-4.683-5.6386-7.898-7.3992-3.215-1.76059-6.823-2.67924-10.488-2.6704h-25.6619c-3.6634.00061-7.2676.9236-10.4803 2.6839-3.2127 1.7602-5.9305 4.3011-7.9027 7.3883-1.9722 3.0871-3.1354 6.6212-3.3822 10.2762s.4307 7.3134 1.97 10.6377l6.8493 14.7847c-1.5572 2.1344-2.8444 4.4531-3.8322 6.9036-.1875.4972-.1726 1.0481.0415 1.5345.214.4864.6101.8696 1.1034 1.0673.4932.1978 1.0443.1943 1.5351-.0096.4907-.2038.882-.5919 1.09-1.081.9756-2.426 2.2866-4.7033 3.8945-6.7654.0223-.0259.0431-.053.0623-.0812 1.7975-2.2921 3.9476-4.284 6.37-5.9015.0163 0 .0244-.0217.0407-.0271 3.0872-2.0356 6.5506-3.433 10.1861-4.1098 3.6355-.6769 7.3696-.6196 10.9824.1686 3.613.7881 7.032 2.2912 10.055 4.4206 3.024 2.1294 5.59 4.8422 7.55 7.9786 1.959 3.1364 3.27 6.6331 3.858 10.2842.587 3.651.438 7.3827-.439 10.9752s-2.464 6.9733-4.667 9.9433c-2.203 2.9701-4.978 5.4693-8.162 7.3506h-13.899c-.5387 0-1.0553.214-1.4363.5949-.3809.381-.5949.8976-.5949 1.4363 0 .5388.214 1.0554.5949 1.4364.381.3809.8976.5948 1.4363.5948h14.433c.349-.003.691-.0962.994-.2707 3.902-2.1794 7.299-5.1597 9.968-8.7452s4.549-7.6951 5.517-12.0588 1.002-8.8827.099-13.2604c-.902-4.3777-2.721-8.5149-5.336-12.1398l6.96-15.0259c1.548-3.3221 2.23-6.9817 1.984-10.6382-.247-3.6566-1.415-7.1914-3.395-10.2755zm-2.275 19.2075-6.147 13.2708c-1.224-1.2692-2.55-2.4351-3.966-3.4856l5.517-11.9167c.896-1.9334 1.29-4.0613 1.147-6.1873-.144-2.1259-.82-4.1815-1.968-5.977-1.147-1.7954-2.729-3.2729-4.598-4.2961-1.869-1.0231-3.966-1.559-6.096-1.5581h-2.546c-.539 0-1.056.214-1.437.5949-.381.381-.595.8976-.595 1.4363 0 .5388.214 1.0554.595 1.4363.381.381.898.595 1.437.595h2.537c1.45-.0012 2.876.3628 4.147 1.0584s2.347 1.7003 3.127 2.9214c.78 1.2212 1.24 2.6193 1.338 4.0651.097 1.4459-.172 2.893-.782 4.2076l-5.254 11.3614c-4.705-2.6428-10.007-4.0424-15.4033-4.0665-5.3967-.0242-10.7104 1.3279-15.4392 3.9284l-5.2-11.2233c-.6098-1.3144-.8785-2.7612-.7815-4.2069.0971-1.4457.5569-2.8436 1.3369-4.0646.78-1.2211 1.8552-2.2259 3.1261-2.9217s2.6967-1.0601 4.1456-1.0593h17.0382c.5382 0 1.0552-.214 1.4362-.595.381-.3809.595-.8975.595-1.4363 0-.5387-.214-1.0553-.595-1.4363-.381-.3809-.898-.5949-1.4362-.5949h-17.0517c-2.1308.0006-4.2272.5376-6.0958 1.5616s-3.4493 2.502-4.5963 4.2977-1.8235 3.8513-1.967 5.9773c-.1435 2.1259.2506 4.2538 1.146 6.1873l5.4329 11.7244c-1.4204 1.0398-2.7513 2.1967-3.9786 3.4586l-6.0477-13.0596c-1.2542-2.705-1.8069-5.6824-1.6069-8.6573.1999-2.9749 1.146-5.8515 2.751-8.3643 1.6049-2.5128 3.817-4.5808 6.432-6.0132s5.5488-2.183 8.5304-2.1825h25.6619c2.981-.0005 5.915.7499 8.53 2.182 2.615 1.432 4.827 3.4996 6.432 6.0119 1.606 2.5124 2.552 5.3886 2.753 8.3633s-.351 5.952-1.604 8.6574z"/></g></svg>