<svg width="130" height="106" viewBox="0 0 130 106" fill="none" xmlns="http://www.w3.org/2000/svg">
<path d="M127.981 31.2034C131.051 35.0145 130.604 40.966 126.752 44.1474C123.218 47.0648 118.305 46.4199 115.504 42.9388C102.697 27.0241 84.3626 17.8962 65.2004 17.8962H64.9109C45.6345 17.9876 27.2797 27.2881 14.5489 43.4137C11.7585 46.9505 6.84036 47.5853 3.32123 44.734C-0.599056 41.5576 -1.04593 35.6061 1.96538 31.795C17.3723 12.2874 39.8683 0.133007 64.8271 0.0136719H65.1902C77.2736 0.0136719 88.9456 2.80155 99.8838 8.29605C100.823 8.76831 101.202 9.91343 100.729 10.8529C100.257 11.7923 99.1147 12.1706 98.175 11.6984C87.7725 6.47301 76.6743 3.82225 65.1902 3.82225H64.8424C41.9224 3.93143 20.0916 14.9864 4.95384 34.1563C3.14096 36.449 3.54721 40.0139 5.71302 41.7683C7.59191 43.2918 10.0853 42.9211 11.5604 41.0549C25.0123 24.0128 44.4513 14.1841 64.8906 14.0876H65.2004C85.5204 14.0876 104.936 23.7335 118.472 40.5521C119.968 42.4107 122.469 42.7459 124.32 41.2174C126.49 39.4248 126.838 35.8574 125.015 33.5926C119.419 26.6407 112.917 20.7298 105.688 16.0198C104.807 15.446 104.558 14.2654 105.132 13.3843C105.706 12.5033 106.886 12.2544 107.768 12.8283C115.334 17.7566 122.133 23.9391 127.981 31.2034V31.2034Z" fill="black"/>
<path d="M107.137 47.8241C110.527 51.6834 110.057 57.8688 106.168 61.0805C102.801 63.8607 98.04 63.424 95.0848 60.0674C87.1173 51.0208 76.4914 46.0445 65.1444 46.0445C65.0834 46.0445 65.0225 46.0445 64.9615 46.0445C53.546 46.0978 42.8947 51.1784 34.9703 60.3495C32.0478 63.7315 27.2897 64.2165 23.9026 61.4717L23.8975 61.4667C19.9747 58.2875 19.4542 52.1077 22.8032 48.2204C33.4875 35.8172 48.4425 28.2406 64.8777 28.1619C81.4194 28.088 96.41 35.6011 107.137 47.8241V47.8241ZM103.738 58.1479C105.985 56.2916 106.246 52.5797 104.276 50.3352C93.876 38.4854 79.982 31.9702 65.1339 31.9702C65.0552 31.9702 64.9765 31.9702 64.8978 31.9702C49.958 32.0413 36.0339 38.6936 25.6898 50.7034C24.7453 51.8002 24.2832 53.3059 24.4203 54.8347C24.5523 56.3098 25.2353 57.6479 26.2941 58.5061C26.2941 58.5061 26.2941 58.5087 26.2966 58.5087L26.2992 58.5112C28.0816 59.9536 30.5165 59.6817 32.0882 57.8589C40.7438 47.8424 52.4108 42.2945 64.9435 42.2361H65.1444C77.6009 42.2361 89.2425 47.6697 97.9438 57.5517C99.533 59.3565 101.97 59.6078 103.738 58.1479V58.1479Z" fill="black"/>
<path d="M85.5933 64.2113C87.5078 65.8921 88.6072 68.3956 88.6072 71.0769C88.6072 73.8978 87.4212 76.4952 85.3544 78.2014C82.2314 80.7811 78.0067 80.5325 75.0966 78.0163C73.3828 76.5335 71.461 75.4595 69.3812 74.8298C68.3732 74.5226 67.8045 73.4588 68.1117 72.4533C68.4164 71.4478 69.4805 70.8791 70.486 71.1838C73.0783 71.9709 75.4701 73.3013 77.5877 75.1348C79.1568 76.4906 81.3023 76.61 82.9299 75.2668C85.375 73.2457 85.4232 69.1299 83.0797 67.0733C77.8949 62.5231 71.6666 60.1186 65.0727 60.1186H64.9508C58.3061 60.1491 52.0601 62.6145 46.8804 67.2434C44.5191 69.3534 44.6918 73.4768 47.1089 75.4344C48.7365 76.7519 50.882 76.6351 52.446 75.2541C54.848 73.1366 57.7044 71.6306 60.7081 70.9047C61.7288 70.6559 62.7596 71.2856 63.0059 72.3063C63.2548 73.3295 62.6251 74.3578 61.6044 74.6069C59.2024 75.1884 56.9046 76.3995 54.9648 78.1108C52.0499 80.6828 47.8275 80.919 44.7121 78.3924C40.4033 74.904 40.2941 68.0257 44.3414 64.4048C50.1406 59.22 57.453 56.3461 64.9305 56.3103H65.0727C72.4969 56.3098 79.7865 59.1152 85.5933 64.2113V64.2113Z" fill="black"/>
<path d="M64.9995 86.209C70.428 86.209 74.8409 90.6396 74.8409 96.0836C74.8409 101.53 70.428 105.958 64.9995 105.958C59.5736 105.958 55.1582 101.53 55.1582 96.0836C55.1582 90.6399 59.5736 86.209 64.9995 86.209ZM71.0323 96.0836C71.0323 92.7397 68.3257 90.0176 64.9995 90.0176C61.6734 90.0176 58.9668 92.7397 58.9668 96.0836C58.9668 99.4301 61.6734 102.149 64.9995 102.149C68.3257 102.149 71.0323 99.4301 71.0323 96.0836Z" fill="black"/>
</svg>
