<svg width="121" height="123" viewBox="0 0 121 123" fill="none" xmlns="http://www.w3.org/2000/svg">
<path d="M5.12482 98.1167H10.4227V120.394C10.4227 121.382 11.2243 122.184 12.2125 122.184H25.7151C26.7039 122.184 27.5049 121.382 27.5049 120.394V98.1167H93.4944V120.394C93.4944 121.382 94.2953 122.184 95.2842 122.184H108.787C109.775 122.184 110.577 121.382 110.577 120.394V98.1167H115.874C118.701 98.1167 121 95.8167 121 92.9903V84.969C121 82.1426 118.701 79.8434 115.874 79.8434H110.879V59.6343C113.56 58.8565 115.526 56.3805 115.526 53.4527C115.526 50.5256 113.56 48.0497 110.879 47.2712V32.4702C111.945 31.8512 112.665 30.6998 112.665 29.3805V25.9948C112.665 24.6771 111.945 23.5249 110.879 22.9059V18.5224C110.879 15.9092 108.754 13.7838 106.142 13.7838H99.2285C96.6154 13.7838 94.4892 15.9092 94.4892 18.5224V22.9059C93.4243 23.5256 92.7046 24.6771 92.7046 25.9963V29.382C92.7046 30.6998 93.4243 31.8512 94.4892 32.4709V47.0176H93.3303C93.3303 47.0176 82.1917 22.0983 82.1858 22.0871C81.2178 19.9221 78.5778 18.9131 76.4129 19.8811L69.2246 23.0938C67.0246 24.0775 66.0357 26.6675 67.0186 28.8675L75.2055 47.1809C72.3478 47.8365 70.2082 50.3989 70.2082 53.4535C70.2082 56.3813 72.174 58.8572 74.8543 59.635V79.8434H47.3897C46.5022 72.4105 40.1618 66.6265 32.494 66.6265H31.171L22.2496 48.9588C23.0744 47.436 23.5434 45.6946 23.5434 43.8452C23.5434 43.3 23.5009 42.7661 23.4226 42.2433L32.978 31.8393C32.978 31.8393 36.7925 36.9306 36.7955 36.9343C39.0656 39.9658 43.643 40.2894 46.3173 37.6137L47.4963 36.4346C48.9803 37.4287 50.7254 37.9619 52.5518 37.9619C54.9866 37.9619 57.2754 37.0133 58.9973 35.2929C62.0266 32.2629 62.5255 27.3581 60.1391 23.7926C60.1391 23.7926 61.3173 22.6143 61.3181 22.6128C63.9983 19.9341 63.6672 15.3611 60.6387 13.0918L50.0192 5.1346C49.2279 4.54172 48.1056 4.70206 47.5134 5.4933C46.9206 6.28529 47.0809 7.40616 47.8722 7.99904C47.8722 7.99904 58.4693 15.9391 58.4924 15.9562C59.8102 16.9436 59.9496 18.9199 58.787 20.0825C58.787 20.0825 43.8227 35.0468 43.7862 35.0833C42.6213 36.2482 40.6451 36.1035 39.6599 34.7887L29.4856 21.2093C26.2543 16.8959 26.7025 10.6196 30.5133 6.80881C33.6074 3.71394 38.2393 2.74371 42.3126 4.33515C43.2336 4.6946 44.2724 4.23969 44.6311 3.31869C44.9906 2.39768 44.5371 1.36034 43.6161 1.00014C38.2176 -1.10811 32.0808 0.178319 27.9814 4.27773C23.5405 8.71869 22.524 15.5088 25.1886 21.0013L13.874 33.1339C13.5131 33.0974 13.1454 33.078 12.7755 33.078C6.83781 33.078 2.00757 37.9082 2.00757 43.8452C2.00757 49.0916 5.77959 53.4714 10.753 54.42L17.8064 68.7146C13.8785 71.0413 11.0998 75.1072 10.533 79.8449H5.12482C2.29841 79.8449 0 82.1434 0 84.9698V92.9911C0 95.8167 2.29841 98.1167 5.12482 98.1167V98.1167ZM23.9253 118.604H14.0023V98.1167H23.9253V118.604ZM106.997 118.604H97.074V98.1167H106.997V118.604ZM57.523 26.408C57.8914 27.1582 58.086 27.9882 58.086 28.8488C58.086 30.3262 57.511 31.7162 56.4655 32.761C55.4199 33.8066 54.0306 34.3823 52.5518 34.3823C51.6927 34.3823 50.8619 34.1869 50.1124 33.8193L57.523 26.408ZM96.2842 29.3761L96.2798 26.0008H109.085L109.093 29.3761H96.2842ZM98.0696 18.5224C98.0696 17.8833 98.5894 17.3635 99.2285 17.3635H106.142C106.781 17.3635 107.301 17.8833 107.301 18.5224V22.4212H98.0696V18.5224ZM98.0696 32.9557H107.301V47.0169H98.0696V32.9557ZM70.6855 26.3625L77.8738 23.1483C78.2698 22.9723 78.7464 23.1632 78.9186 23.5473L89.4106 47.0169H79.0536L78.146 44.9862L80.9344 43.7408C81.8368 43.3373 82.241 42.2784 81.8375 41.376C81.434 40.4736 80.3758 40.0694 79.4735 40.4729L76.6851 41.719L75.5426 39.1633L78.3302 37.9172C79.2326 37.5145 79.6375 36.4555 79.2341 35.5531C78.8314 34.6508 77.7724 34.2458 76.87 34.6493L74.0817 35.8962L72.9399 33.3397L75.7268 32.0936C76.6292 31.6901 77.0341 30.6319 76.6314 29.7296C76.2272 28.8272 75.1682 28.4222 74.2659 28.8264L71.479 30.0726L70.2865 27.4065C70.1083 27.0083 70.2873 26.5392 70.6855 26.3625V26.3625ZM78.4339 59.8893H95.0209C96.0091 59.8893 96.8107 59.0876 96.8107 58.0995C96.8107 57.1114 96.0091 56.3097 95.0209 56.3097H76.6441C75.069 56.3097 73.7878 55.0278 73.7878 53.4535C73.7878 51.8784 75.069 50.5965 76.6441 50.5965H109.09C110.666 50.5965 111.947 51.8784 111.947 53.4535C111.947 55.0278 110.666 56.3097 109.09 56.3097H102.168C101.179 56.3097 100.378 57.1114 100.378 58.0995C100.378 59.0876 101.179 59.8893 102.168 59.8893H107.301V79.8434H78.4339V59.8893ZM17.7049 34.2742L27.185 24.1081L30.7937 28.9241L22.0743 38.4206C21.0496 36.6643 19.5089 35.2086 17.7049 34.2742ZM5.58719 43.8452C5.58719 39.8822 8.81182 36.6569 12.7755 36.6569C16.6497 36.6569 19.9638 39.9538 19.9638 43.8452C19.9638 47.7209 16.6952 51.0327 12.7867 51.0327C12.783 51.0327 12.7792 51.0335 12.7755 51.0335C8.89759 51.0335 5.58719 47.7246 5.58719 43.8452V43.8452ZM21.0839 67.2663L14.7503 54.4304C15.1955 54.3454 15.6377 54.235 16.0688 54.0956C17.4111 53.663 18.7057 52.9419 19.7848 52.0186L27.1611 66.6265C26.0604 66.6265 24.9604 66.6004 23.8626 66.7085C22.923 66.8054 21.9885 66.9926 21.0839 67.2663V67.2663ZM21.2741 70.9899C24.0513 69.9018 32.494 70.2061 32.494 70.2061C38.1863 70.2061 42.9196 74.3898 43.781 79.8434H14.1425C14.7823 75.794 17.5573 72.4471 21.2741 70.9899ZM3.57887 84.969C3.57887 84.1166 4.27242 83.4223 5.12482 83.4223H115.875C116.727 83.4223 117.42 84.1159 117.42 84.969V92.9903C117.42 93.8435 116.727 94.537 115.875 94.537H5.12482C4.27242 94.537 3.57887 93.8435 3.57887 92.9903V84.969Z" fill="black"/>
</svg>
